<?xml version="1.0" encoding="UTF-8" standalone="no"?>
<svg xmlns="http://www.w3.org/2000/svg"
   xmlns:dc="http://purl.org/dc/elements/1.1/"
   xmlns:cc="http://creativecommons.org/ns#"
   xmlns:rdf="http://www.w3.org/1999/02/22-rdf-syntax-ns#"
   width="744" height="740" viewBox="0 156 744 740">
  <metadata>
    <rdf:RDF>
      <cc:Work rdf:about="">
        <dc:format>image/svg+xml</dc:format>
        <dc:type rdf:resource="http://purl.org/dc/dcmitype/StillImage"/>
        <dc:title>Talk sign</dc:title>
      </cc:Work>
    </rdf:RDF>
  </metadata>
  <g transform="matrix(5.8105109,0,0,5.8105109,13.134888,167.26874)">
    <path d="m 108.781,123.539 c 8.148,0 14.758,-6.594 14.758,-14.75 V 14.758 C 123.539,6.602 116.93,0 108.781,0 H 14.758 C 6.609,0 0,6.602 0,14.758 v 94.031 c 0,8.156 6.609,14.75 14.758,14.75 h 94.023 z"/>
    <path style="fill:#ffffff"
       d="M 14.758,2.5 C 8.008,2.5 2.508,8 2.508,14.758 v 94.031 c 0,6.75 5.5,12.242 12.25,12.242 h 94.023 c 6.75,0 12.25,-5.492 12.25,-12.242 V 14.758 C 121.031,8 115.531,2.5 108.781,2.5 H 14.758 z"/>
    <g transform="matrix(0.82093077,0,0,0.82093077,-116.58144,64.629117)">
      <circle cx="130.9501" cy="46.58577" r="46.545212"
         transform="matrix(0.22165821,0,0,0.22165821,148.53299,-66.886669)"/>
      <path d="m 176.13063,19.151149 v 35.871832 c -0.054,6.517242 -9.75527,6.517242 -9.84098,0 V 19.151149 H 153.59162 L 167.242,-28.783707 h -2.22215 l -7.93627,27.3006399 c -2.00629,6.0378898 -10.17113,3.5935318 -8.25373,-2.8570325 l 8.88863,-29.5228014 c 1.02219,-3.390359 5.29508,-9.377135 12.69803,-9.523483 h 14.2853 c 7.18963,0.146348 11.4803,6.183919 12.69804,9.523483 l 8.88863,29.5228014 c 1.80312,6.4188139 -6.29696,9.0536474 -8.25373,2.8570325 l -7.93627,-27.3006399 h -2.53961 l 13.96784,47.934856 h -13.01549 v 35.871832 c 0.10159,6.517242 -9.56162,6.485491 -9.52353,0 V 19.151149 z"/>
      <path d="m 251.049,-43.386384 c -7.93309,0 -13.01549,6.868648 -13.01549,13.650325 V 2.0088831 c -0.073,6.2029543 8.85879,6.2029543 8.88863,0 V -27.196466 h 2.22215 v 80.632197 c -0.13777,8.418768 11.75838,8.177506 11.74569,0 V 6.4531746 h 1.90471 V 53.435731 c 0.15555,8.177506 12.11392,8.418768 12.06312,0 v -80.632197 h 2.22216 V 2.0088831 c -0.10475,6.2505754 8.7807,6.2505754 8.88862,0 V -29.736059 c -0.12696,-6.781677 -5.39983,-13.528741 -13.33293,-13.650325 z"/>
      <circle cx="511.90546" cy="46.58577" r="46.545212"
         transform="matrix(0.22165821,0,0,0.22165821,148.53299,-66.886669)"/>
    </g>
    <g transform="matrix(0.63973942,0,0,0.63973942,37.588778,66.553728)">
      <g transform="matrix(0,-0.53849617,0.53849617,0,-23.604743,-39.244378)">
        <path d="m 84.844,55.234 c -6.641,4.547 -14.727,7.226 -23.391,7.226 -8.609,0 -16.602,-2.632 -23.266,-7.125 l -5.227,7.789 c 8.133,5.517 17.945,8.688 28.492,8.688 10.616,0 20.483,-3.22 28.633,-8.789 l -5.241,-7.789 z"/>
        <path d="M 94.828,71.242 C 85.328,77.711 73.851,81.469 61.5,81.469 49.211,81.469 37.781,77.75 28.297,71.352 l -5.273,7.603 c 10.96,7.444 24.218,11.803 38.476,11.803 14.281,0 27.539,-4.366 38.555,-11.827 l -5.227,-7.689 z"/>
        <path d="m 104.742,87.125 c -12.344,8.375 -27.227,13.266 -43.265,13.266 -16.016,0 -30.883,-4.867 -43.211,-13.22 l -5.156,7.688 c 13.781,9.352 30.445,14.82 48.367,14.82 17.953,0 34.656,-5.517 48.484,-14.906 l -5.219,-7.648 z"/>
      </g>
      <g transform="matrix(0,-0.53849617,-0.53849617,0,99.20028,-39.244378)">
        <path d="m 84.844,55.234 c -6.641,4.547 -14.727,7.226 -23.391,7.226 -8.609,0 -16.602,-2.632 -23.266,-7.125 l -5.227,7.789 c 8.133,5.517 17.945,8.688 28.492,8.688 10.616,0 20.483,-3.22 28.633,-8.789 l -5.241,-7.789 z"/>
        <path d="M 94.828,71.242 C 85.328,77.711 73.851,81.469 61.5,81.469 49.211,81.469 37.781,77.75 28.297,71.352 l -5.273,7.603 c 10.96,7.444 24.218,11.803 38.476,11.803 14.281,0 27.539,-4.366 38.555,-11.827 l -5.227,-7.689 z"/>
        <path d="m 104.742,87.125 c -12.344,8.375 -27.227,13.266 -43.265,13.266 -16.016,0 -30.883,-4.867 -43.211,-13.22 l -5.156,7.688 c 13.781,9.352 30.445,14.82 48.367,14.82 17.953,0 34.656,-5.517 48.484,-14.906 l -5.219,-7.648 z"/>
      </g>
    </g>
  </g>
</svg>