<?xml version="1.0" standalone="no"?>
<!DOCTYPE svg PUBLIC "-//W3C//DTD SVG 20010904//EN"
 "http://www.w3.org/TR/2001/REC-SVG-20010904/DTD/svg10.dtd">
<svg version="1.0" xmlns="http://www.w3.org/2000/svg"
 width="1280.000000pt" height="1050.000000pt" viewBox="0 0 1280.000000 1050.000000"
 preserveAspectRatio="xMidYMid meet">
<g transform="translate(0.000000,1050.000000) scale(0.100000,-0.100000)"
fill="#000000" stroke="none">
<path d="M6776 10309 l-186 -192 0 92 c0 106 6 103 -128 75 -109 -22 -255 -96
-392 -198 -63 -47 -118 -82 -122 -78 -4 4 -32 61 -62 127 l-54 120 -144 -3
c-303 -5 -536 -32 -683 -78 -212 -67 -582 -244 -862 -412 -1789 -1075 -2237
-1381 -2857 -1952 -221 -204 -678 -667 -763 -773 -162 -202 -203 -323 -233
-697 -31 -391 -51 -460 -174 -603 -88 -103 -122 -209 -113 -347 13 -189 77
-286 423 -641 180 -184 214 -227 214 -270 0 -32 -57 -81 -159 -133 -56 -29
-91 -53 -91 -63 0 -23 72 -91 104 -99 16 -4 86 1 157 11 71 9 135 15 143 12 8
-3 30 -40 49 -81 43 -93 97 -152 205 -223 157 -105 487 -237 943 -378 387
-120 712 -227 812 -266 120 -48 217 -96 217 -108 0 -5 -53 -26 -117 -46 -161
-51 -256 -98 -312 -154 l-46 -46 106 -7 c171 -10 324 -70 548 -214 50 -33 91
-62 91 -67 0 -4 -69 -105 -153 -225 -714 -1011 -1153 -1645 -1190 -1717 -23
-46 -45 -141 -52 -225 -6 -68 8 -246 19 -258 3 -2 79 14 168 36 228 57 315 72
456 79 l122 6 0 -156 c0 -119 3 -157 13 -157 49 0 294 33 369 50 486 106 1008
398 1626 911 275 229 538 482 1054 1016 l360 373 793 0 c442 0 849 4 921 10
177 14 311 41 499 100 293 93 487 133 610 128 70 -3 70 -3 73 -33 7 -76 8 -78
60 -70 156 23 838 338 1307 603 412 233 708 470 786 627 44 91 24 82 552 261
142 48 201 73 209 87 6 11 23 72 39 135 34 138 68 211 128 276 49 52 105 83
173 94 l41 7 -4 80 c-7 134 -4 427 4 488 6 38 17 67 34 88 14 16 106 84 204
150 98 66 203 143 234 171 l57 51 -5 471 c-4 502 -7 532 -62 780 -71 316 -167
516 -271 566 -38 19 -54 21 -112 15 l-67 -7 40 42 c45 47 143 110 258 166 42
21 76 42 75 45 -9 24 -415 453 -619 654 -402 396 -559 524 -914 745 -99 62
-188 120 -199 130 -18 18 -18 20 28 77 25 33 46 64 46 71 0 18 -167 188 -270
274 -203 170 -472 321 -735 411 -169 58 -223 66 -505 76 l-235 9 -95 -53
c-163 -92 -162 -91 -202 -67 -45 28 -204 193 -213 220 l-6 22 -723 0 -724 0
-108 76 c-60 42 -132 98 -161 125 -28 27 -54 49 -56 49 -3 0 -89 -86 -191
-191z m-1606 -458 c0 -5 -31 -38 -70 -74 -149 -141 -233 -177 -413 -177 -69 0
-107 4 -101 9 20 20 409 215 463 232 60 19 121 24 121 10z m4492 -1 c46 -13
63 -57 55 -137 -7 -64 -25 -95 -64 -112 -44 -18 -80 0 -103 51 -36 79 -22 169
30 195 30 15 35 16 82 3z m-5286 -294 c30 -30 34 -40 34 -86 0 -46 -4 -56 -34
-86 -63 -63 -151 -35 -163 53 -13 97 19 153 88 153 33 0 47 -6 75 -34z m3054
-221 c256 -8 606 -51 940 -116 1052 -203 1987 -627 2514 -1139 276 -268 468
-559 566 -858 57 -175 65 -239 64 -547 0 -287 -7 -362 -50 -525 -102 -382
-273 -699 -563 -1049 -136 -162 -461 -487 -621 -619 -539 -444 -1270 -820
-2005 -1031 -258 -74 -421 -108 -675 -140 -286 -37 -392 -44 -487 -32 -302 40
-854 154 -1038 216 l-130 44 -80 -39 c-121 -58 -128 -64 -1122 -1035 -737
-720 -881 -837 -1393 -1142 -332 -197 -432 -243 -522 -243 l-43 1 106 103 c77
75 149 132 269 212 183 121 316 240 429 383 75 95 886 1203 1026 1401 105 149
186 309 193 379 6 67 -22 186 -65 271 -44 90 -132 186 -181 200 -21 6 -158 19
-307 30 -750 55 -1089 108 -1512 236 -494 149 -865 353 -1157 634 -326 314
-426 565 -426 1064 0 176 6 247 30 351 41 184 134 380 264 560 216 299 429
517 744 758 591 453 1533 895 2607 1222 712 217 1339 353 2014 435 98 13 379
28 421 24 14 -2 99 -6 190 -9z m3891 -645 c10 -6 30 -32 43 -58 13 -26 38 -55
55 -65 42 -24 71 -57 71 -78 0 -25 -80 -170 -97 -176 -24 -9 -67 31 -84 78
-12 32 -24 45 -45 52 -44 14 -70 44 -84 92 -15 53 -6 96 27 135 27 32 75 40
114 20z m254 -256 c19 -8 45 -55 45 -83 0 -11 -13 -43 -30 -71 -16 -28 -30
-54 -30 -59 0 -18 -39 -43 -59 -36 -26 8 -81 71 -81 93 0 9 16 37 35 61 19 24
35 51 35 60 0 35 41 51 85 35z m126 -137 c36 -27 52 -93 39 -153 -12 -51 -41
-74 -96 -74 -39 0 -47 4 -64 33 -26 42 -25 62 4 100 13 18 31 49 40 70 16 39
45 49 77 24z m-10624 -3751 c25 -22 28 -31 31 -104 4 -76 2 -82 -22 -106 -37
-38 -97 -36 -137 3 -26 26 -29 36 -29 93 1 69 15 104 51 124 37 20 75 17 106
-10z m2321 -1482 c30 -21 28 -50 -7 -85 -34 -33 -43 -35 -65 -13 -23 22 -30
62 -17 90 13 28 54 33 89 8z"/>
<path d="M11327 8532 c-21 -23 -22 -62 -2 -62 14 0 45 48 45 70 0 16 -25 12
-43 -8z"/>
</g>
</svg>
